<svg xmlns="http://www.w3.org/2000/svg" viewBox="0 0 18.286 12"><path fill="#222" d="M16.571 0h-14.856c-.947 0-1.715.767-1.715 1.714v8.572c0 .947.768 1.714 1.715 1.714h14.856c.948 0 1.715-.767 1.715-1.714v-8.572c0-.947-.767-1.714-1.715-1.714zm-14.285 1.143h13.714c.165 0 .32.037.462.099l-6.842 6.089c-.109.084-.271.14-.434.14-.16 0-.312-.053-.439-.156l-6.735-6.135.274-.037zm-1.143 1.143c0-.116.022-.223.053-.328l4.495 4.096-4.493 3.991c-.033-.105-.055-.215-.055-.331v-7.428zm14.857 8.571h-13.714l-.239-.026 4.5-3.998 1.466 1.336c.706.564 1.663.541 2.33.024l1.462-1.301 4.434 3.939-.239.026zm1.142-1.143c0 .116-.021.226-.053.331l-4.418-3.924 4.459-3.969.012.134v7.428z"/></svg>