<svg xmlns="http://www.w3.org/2000/svg" viewBox="0 0 28 28"><path d="M14 0c7.732 0 14 6.268 14 14s-6.268 14-14 14-14-6.268-14-14 6.268-14 14-14z" fill="#f5f5f5"/><path d="M11.623 9.125c-.438.016-.813.086-1.125.211-.251.094-.477.242-.68.445-.188.188-.336.414-.445.68-.11.328-.173.703-.188 1.125-.031.844-.047 1.649-.047 2.414 0 .75.016 1.563.047 2.437.015.438.086.813.211 1.126.094.25.242.476.445.679.188.188.414.336.68.446.328.109.703.172 1.125.187.844.031 1.648.047 2.414.047.75 0 1.562-.016 2.438-.047.437-.015.812-.086 1.125-.211.249-.094.476-.242.679-.445.188-.188.336-.414.446-.68.109-.328.171-.703.187-1.125.031-.844.047-1.648.047-2.414 0-.75-.016-1.562-.047-2.437-.016-.438-.086-.813-.211-1.126-.094-.249-.242-.476-.445-.679-.188-.188-.414-.336-.68-.446-.328-.109-.703-.171-1.125-.187-.844-.031-1.649-.047-2.414-.047-.75 0-1.563.016-2.437.047zm4.898-1.078c.562.016 1.047.102 1.453.258.422.172.781.406 1.078.703s.531.656.703 1.078c.156.375.242.859.258 1.453.031.844.047 1.664.047 2.461s-.016 1.617-.047 2.461c-.016.562-.102 1.047-.258 1.453-.172.422-.406.782-.703 1.078-.297.297-.656.532-1.078.703-.375.157-.859.243-1.453.258-.844.032-1.664.047-2.461.047s-1.617-.015-2.461-.047c-.562-.015-1.047-.101-1.453-.258-.422-.171-.781-.406-1.078-.703-.297-.296-.532-.656-.703-1.078-.157-.375-.243-.859-.258-1.453-.032-.844-.047-1.664-.047-2.461s.015-1.617.047-2.461c.015-.562.101-1.047.258-1.453.171-.422.406-.781.703-1.078s.656-.531 1.078-.703c.375-.156.859-.242 1.453-.258.844-.031 1.664-.047 2.461-.047s1.617.016 2.461.047zm.633 5.953c0 .859-.301 1.59-.903 2.191-.601.602-1.332.903-2.191.903s-1.59-.301-2.191-.903c-.602-.601-.903-1.332-.903-2.191s.301-1.59.903-2.191c.601-.602 1.332-.903 2.191-.903s1.59.301 2.191.903c.602.601.903 1.332.903 2.191zm-1.078 0c0-.547-.2-1.02-.598-1.418s-.871-.598-1.418-.598-1.019.2-1.418.598c-.398.398-.598.871-.598 1.418s.2 1.02.598 1.418c.399.398.871.598 1.418.598s1.02-.2 1.418-.598.598-.871.598-1.418zm1.195-3.914c-.203 0-.375.067-.516.199-.14.133-.211.301-.211.504s.071.375.211.516c.141.14.313.211.516.211s.371-.071.504-.211c.132-.141.199-.313.199-.516s-.067-.371-.199-.504c-.133-.132-.301-.199-.504-.199z" fill="#999"/></svg>