<svg xmlns="http://www.w3.org/2000/svg" viewBox="0 0 28 28"><path fill="#f5f5f5" d="M14 0c7.732 0 14 6.268 14 14s-6.268 14-14 14-14-6.268-14-14 6.268-14 14-14z"/><path fill="#0088cc" d="M18.761 8.524c.167-.05.325-.054.476-.012.15.041.225.162.225.362l-2.026 10.203-.125.175c-.067.117-.179.2-.338.25-.158.05-.362.034-.612-.05l-2.851-2.176-1.8 1.776-.351.1h-.05c-.1-.033-.208-.242-.325-.625-.35-1.251-.692-2.417-1.025-3.501l-2.826-.95-.125-.05c-.066-.034-.137-.092-.212-.176-.075-.083-.121-.175-.138-.275-.016-.1.021-.195.113-.287.091-.092.171-.15.237-.175l.15-.063 11.378-4.451.225-.075zm-1.5 2.151c0-.167-.125-.167-.375 0l-6.702 4.451c.1.283.267.838.5 1.663l.425 1.488c.05.083.113.125.188.125s.121-.059.137-.175l.276-2.351 2.775-2.551c1.634-1.5 2.509-2.3 2.626-2.4.1-.1.15-.184.15-.25z"/></svg>
