<svg xmlns="http://www.w3.org/2000/svg" viewBox="0 0 28 28"><path d="M14 0c7.732 0 14 6.268 14 14s-6.268 14-14 14-14-6.268-14-14 6.268-14 14-14z" fill="#f5f5f5"/><path d="M21.06 10.273c-.391.188-.859.321-1.406.399.531-.328.89-.781 1.078-1.36-.438.266-.961.462-1.57.586-.485-.515-1.087-.773-1.805-.773-.688 0-1.27.242-1.746.727-.477.484-.715 1.062-.715 1.734 0 .187.023.375.07.562-2.078-.093-3.765-.952-5.062-2.578-.235.422-.352.836-.352 1.242 0 .891.367 1.571 1.102 2.04-.375 0-.743-.102-1.102-.305v.047c0 .578.188 1.094.563 1.547s.843.742 1.406.867c-.203.047-.422.07-.656.07-.204 0-.36-.015-.469-.047.172.5.469.911.891 1.231.421.32.898.48 1.429.48-.875.703-1.898 1.055-3.07 1.055-.266 0-.461-.008-.586-.024 1.125.735 2.383 1.102 3.773 1.102 1.438 0 2.703-.363 3.797-1.09 1.094-.726 1.902-1.613 2.426-2.66.523-1.047.785-2.133.785-3.258v-.305c.484-.359.891-.788 1.219-1.289z" fill="#1da1f2"/></svg>