<svg xmlns="http://www.w3.org/2000/svg" viewBox="0 0 28 28"><path d="M14 0c7.732 0 14 6.268 14 14s-6.268 14-14 14-14-6.268-14-14 6.268-14 14-14z" fill="#f5f5f5"/><path d="M21.07 17.555c-.037.237-.232.378-.588.424-.355.045-.72.045-1.094 0-.373-.046-.688-.023-.943.068h-.055c-.529-.091-1.066-.456-1.613-1.094l-.246-.301c-.146-.182-.278-.314-.396-.396-.119-.082-.242-.114-.37-.096-.182.019-.3.123-.355.315-.055.191-.087.419-.096.683-.009.265-.05.451-.123.561-.128.255-.683.337-1.668.246-.857-.091-1.554-.333-2.092-.725s-1.071-.916-1.599-1.572l-.192-.246-.054-.082-.137-.192-.055-.082-.136-.191-.055-.055-.082-.15-.082-.123-.164-.246-.055-.082-.068-.096-.069-.096-.027-.054v-.028l-.068-.095-.069-.096-.027-.055v-.027c-.273-.456-.584-1.03-.93-1.723-.328-.656-.492-1.139-.492-1.449.127-.109.565-.164 1.313-.164.838 0 1.312.027 1.421.082.055.018.11.078.165.178l.191.396.164.328c.146.347.383.793.711 1.34l.082.11.027.054.055.082.027.028.055.109.027.027.055.069.027.068.123.164.151.205.15.164.192.137c.063.027.123.032.177.014.237-.037.356-.483.356-1.34v-.082c.036-.729-.019-1.231-.164-1.504-.055-.11-.178-.205-.369-.287-.192-.082-.306-.141-.342-.178.182-.346.738-.52 1.668-.52 1.075 0 1.686.119 1.832.356.072.146.118.319.137.519.017.201.013.447-.014.739l-.041.601-.027.192v.41l-.028.027v.137l.028.027v.301l.027.027v.082l.027.028v.054l.028.028v.055h.027v.054l.027.028.028.027v.027l.027.028.027.027.028.027.027.028h.027v.027l.055.027c.2-.036.446-.255.738-.656l.082-.109.028-.028.027-.054.055-.055.027-.055v-.027l.027-.027.028-.028.082-.136.054-.083.055-.082c.182-.291.392-.692.629-1.203l.109-.246.123-.301.137-.232s.123-.132.178-.15c.127-.055.273-.087.437-.096s.374-.004.629.014l.547.027.301-.014.369-.013.342.027c.127.018.228.046.301.082.072.037.127.082.164.137.091.2-.028.583-.356 1.148-.073.128-.428.602-1.066 1.422l-.027.055-.028.027-.027.027-.055.055v.027l-.027.028-.055.054-.082.082c-.383.529-.565.885-.547 1.067.018.146.201.392.547.738.602.565 1.03 1.021 1.285 1.367.328.383.483.684.465.903z" fill="#45668e"/></svg>